# xmcd
#
# Track frame offsets: 
#        150
#        23675
#        46463
#        66048
#        86162
#        106707
#        125193
#        144012
#        163170
#        177526
#        195402
#        218204
#        237260
#        254368
#        272546
#
# Disc length: 3926 seconds
#
# Revision: 0
# Processed by: cddbd v1.5.2PL0 Copyright (c) Steve Scherf et al.
# Submitted via: ExactAudioCopy v0.99pb4
#
DISCID=d20f540f
DTITLE=Brad Paisley - This Is Country Music
DYEAR=2011
DGENRE=Country
TTITLE0=This Is Country Music
TTITLE1=Old Alabama (Feat. Alabama)
TTITLE2=A Man Don't Have To Die
TTITLE3=Camouflage
TTITLE4=Remind Me (Feat. Carrie Underwood)
TTITLE5=Working On A Tan
TTITLE6=Love Her Like She's Leavin (Feat. Dan Henley)
TTITLE7=One Of Those Lives
TTITLE8=Toothbrush
TTITLE9=Be The Lake
TTITLE10=Eastwood (Feat. Clint Eastwood)
TTITLE11=New Favorite Memory
TTITLE12=Don't Drink The Water (Feat. Blake Shelton)
TTITLE13=I Do Now
TTITLE14=Life's Railway To Heaven (Feat. Sheryl Crow And Carl Jackson)
EXTD=
EXTT0=
EXTT1=
EXTT2=
EXTT3=
EXTT4=
EXTT5=
EXTT6=
EXTT7=
EXTT8=
EXTT9=
EXTT10=
EXTT11=
EXTT12=
EXTT13=
EXTT14=
PLAYORDER=
